<svg width="322" height="322" viewBox="0 0 322 322" fill="none" xmlns="http://www.w3.org/2000/svg">
<circle cx="161" cy="161" r="155.5" fill="#F999F0" stroke="white" stroke-width="11"/>
<path d="M246.63 93.3272C245.957 91.3567 245.152 90.8382 243.896 90.3456C241.149 89.3344 236.497 90.8641 236.497 90.8641C236.497 90.8641 71.7743 149.668 62.3638 156.176C60.3376 157.576 59.6587 158.405 59.3219 159.365C57.6952 163.98 62.7633 166.028 62.7633 166.028L105.22 179.77C105.22 179.77 106.802 180.003 107.366 179.64C117.025 173.573 204.542 118.71 209.589 116.869C210.385 116.636 210.975 116.895 210.819 117.44C208.798 124.492 132.786 191.567 132.786 191.567C132.786 191.567 132.496 191.93 132.313 192.345L132.214 192.293L128.253 234.114C128.253 234.114 126.592 246.922 139.494 234.114C148.596 225.065 157.403 217.494 161.811 213.838C176.41 223.847 192.121 234.918 198.902 240.699C202.307 243.603 205.155 244.07 207.5 243.992C213.936 243.759 215.733 236.733 215.733 236.733C215.733 236.733 245.75 116.766 246.753 100.691C246.852 99.1091 246.988 98.1238 246.998 97.0349C247.017 95.5311 246.876 94.0273 246.63 93.3272Z" fill="white"/>
</svg>
