<svg width="322" height="322" viewBox="0 0 322 322" fill="none" xmlns="http://www.w3.org/2000/svg">
<circle cx="161" cy="161" r="155.5" fill="#F999F0" stroke="white" stroke-width="11"/>
<path d="M73 103.753V161.815L99.3092 150.475V119.629L130.608 136.866L158.732 123.258L99.3092 91.0521L73 103.753Z" fill="white"/>
<path d="M161.452 58.8456L116.545 82.4331L146.483 98.3094L161.452 90.5981L175.514 98.3094L207.267 82.4331L161.452 58.8456Z" fill="white"/>
<path d="M225.865 92.866L194.567 107.835L214.979 120.536L73 184.495V219.422L94.7731 230.762L125.618 215.34L106.567 204.453L248.999 138.68V104.66L225.865 92.866Z" fill="white"/>
<path d="M249 218.061V160.907L222.237 172.247V202.639L190.938 186.309L162.814 200.371L223.144 231.67L249 218.061Z" fill="white"/>
<path d="M145.123 226.68L116.545 240.289L161.452 263.876L207.72 240.289L179.143 226.68L161.452 233.484L145.123 226.68Z" fill="white"/>
</svg>
