<svg width="322" height="322" viewBox="0 0 322 322" fill="none" xmlns="http://www.w3.org/2000/svg">
<circle cx="161" cy="161" r="155.5" fill="#F999F0" stroke="white" stroke-width="11"/>
<path d="M199.544 232.683L156.53 170.187L150.404 161.291L100.491 88.772H121.961L162.327 147.42L168.452 156.316L221.014 232.683H199.544ZM229.89 226.579L175.713 147.87L169.588 138.969L130.833 82.666L127.621 78.0001H80L91.614 94.8766L143.143 169.746L149.268 178.639L190.67 238.795L193.883 243.455H241.504L229.89 226.579Z" fill="white"/>
<path d="M150.59 161.291L156.716 170.187L149.454 178.639L93.739 243.455H80L143.329 169.746L150.59 161.291Z" fill="white"/>
<path d="M235.955 78L175.897 147.87L168.635 156.316L162.51 147.42L169.772 138.969L210.454 91.6166L222.216 78H235.955Z" fill="white"/>
</svg>
